<?xml version="1.0" encoding="UTF-8" standalone="no"?>
<!-- Created with Inkscape (http://www.inkscape.org/) -->
<svg xmlns:dc="http://purl.org/dc/elements/1.1/" xmlns:cc="http://creativecommons.org/ns#" xmlns:rdf="http://www.w3.org/1999/02/22-rdf-syntax-ns#" xmlns:svg="http://www.w3.org/2000/svg" xmlns="http://www.w3.org/2000/svg" xmlns:xlink="http://www.w3.org/1999/xlink" xmlns:sodipodi="http://sodipodi.sourceforge.net/DTD/sodipodi-0.dtd" xmlns:inkscape="http://www.inkscape.org/namespaces/inkscape" width="231.96875" height="300.0686" id="svg2" version="1.1" inkscape:version="0.48.0 r9654" sodipodi:docname="Barn Swallow.svg">
  <defs id="defs4">
    <linearGradient inkscape:collect="always" id="linearGradient3935">
      <stop style="stop-color:#b67e3f;stop-opacity:1;" offset="0" id="stop3937"/>
      <stop style="stop-color:#1a1a1a;stop-opacity:1" offset="1" id="stop3939"/>
    </linearGradient>
    <linearGradient inkscape:collect="always" id="linearGradient3806">
      <stop style="stop-color:#040c21;stop-opacity:1;" offset="0" id="stop3808"/>
      <stop style="stop-color:#372f2a;stop-opacity:1" offset="1" id="stop3810"/>
    </linearGradient>
    <linearGradient inkscape:collect="always" id="linearGradient3796">
      <stop style="stop-color:#000000;stop-opacity:1;" offset="0" id="stop3798"/>
      <stop style="stop-color:#050d22;stop-opacity:1" offset="1" id="stop3800"/>
    </linearGradient>
    <linearGradient inkscape:collect="always" id="linearGradient3786">
      <stop style="stop-color:#d45500;stop-opacity:1;" offset="0" id="stop3788"/>
      <stop style="stop-color:#aa4400;stop-opacity:1" offset="1" id="stop3790"/>
    </linearGradient>
    <linearGradient inkscape:collect="always" id="linearGradient3776">
      <stop style="stop-color:#091d14;stop-opacity:1;" offset="0" id="stop3778"/>
      <stop style="stop-color:#00002b;stop-opacity:1" offset="1" id="stop3780"/>
    </linearGradient>
    <linearGradient inkscape:collect="always" xlink:href="#linearGradient3776" id="linearGradient3782" x1="331.37421" y1="416.81616" x2="366.8197" y2="415.52081" gradientUnits="userSpaceOnUse"/>
    <linearGradient inkscape:collect="always" xlink:href="#linearGradient3786" id="linearGradient3792" x1="329.72559" y1="471.57416" x2="336.08456" y2="453.67477" gradientUnits="userSpaceOnUse"/>
    <linearGradient inkscape:collect="always" xlink:href="#linearGradient3796" id="linearGradient3802" x1="360.05203" y1="459.15897" x2="371.70959" y2="412.52872" gradientUnits="userSpaceOnUse"/>
    <linearGradient inkscape:collect="always" xlink:href="#linearGradient3806" id="linearGradient3812" x1="383.70023" y1="446.50217" x2="468.28525" y2="599.33777" gradientUnits="userSpaceOnUse"/>
    <filter inkscape:collect="always" id="filter3844" color-interpolation-filters="sRGB">
      <feGaussianBlur inkscape:collect="always" stdDeviation="0.66651665" id="feGaussianBlur3846"/>
    </filter>
    <filter inkscape:collect="always" id="filter3848" color-interpolation-filters="sRGB">
      <feGaussianBlur inkscape:collect="always" stdDeviation="0.66651665" id="feGaussianBlur3850"/>
    </filter>
    <filter inkscape:collect="always" id="filter3852" color-interpolation-filters="sRGB">
      <feGaussianBlur inkscape:collect="always" stdDeviation="0.66651665" id="feGaussianBlur3854"/>
    </filter>
    <filter inkscape:collect="always" id="filter3856" color-interpolation-filters="sRGB">
      <feGaussianBlur inkscape:collect="always" stdDeviation="0.66651665" id="feGaussianBlur3858"/>
    </filter>
    <filter inkscape:collect="always" id="filter3860" color-interpolation-filters="sRGB">
      <feGaussianBlur inkscape:collect="always" stdDeviation="0.66651665" id="feGaussianBlur3862"/>
    </filter>
    <linearGradient inkscape:collect="always" xlink:href="#linearGradient3935" id="linearGradient3941" x1="439.94812" y1="593.57263" x2="524.73468" y2="691.54822" gradientUnits="userSpaceOnUse"/>
    <linearGradient inkscape:collect="always" xlink:href="#linearGradient3935" id="linearGradient3968" gradientUnits="userSpaceOnUse" x1="439.94812" y1="593.57263" x2="524.73468" y2="691.54822"/>
    <linearGradient inkscape:collect="always" xlink:href="#linearGradient3806" id="linearGradient3970" gradientUnits="userSpaceOnUse" x1="383.70023" y1="446.50217" x2="468.28525" y2="599.33777"/>
    <linearGradient inkscape:collect="always" xlink:href="#linearGradient3796" id="linearGradient3972" gradientUnits="userSpaceOnUse" x1="360.05203" y1="459.15897" x2="371.70959" y2="412.52872"/>
    <linearGradient inkscape:collect="always" xlink:href="#linearGradient3786" id="linearGradient3974" gradientUnits="userSpaceOnUse" x1="329.72559" y1="471.57416" x2="336.08456" y2="453.67477"/>
    <linearGradient inkscape:collect="always" xlink:href="#linearGradient3776" id="linearGradient3976" gradientUnits="userSpaceOnUse" x1="331.37421" y1="416.81616" x2="366.8197" y2="415.52081"/>
  </defs>
  <sodipodi:namedview id="base" pagecolor="#ffffff" bordercolor="#666666" borderopacity="1.0" inkscape:pageopacity="0.0" inkscape:pageshadow="2" inkscape:zoom="0.8048275" inkscape:cx="112.28077" inkscape:cy="63.118555" inkscape:document-units="px" inkscape:current-layer="layer1" showgrid="false" inkscape:window-width="1366" inkscape:window-height="718" inkscape:window-x="-8" inkscape:window-y="-8" inkscape:window-maximized="1" fit-margin-top="0" fit-margin-left="0" fit-margin-right="0" fit-margin-bottom="0"/>
  <metadata id="metadata7">
    <rdf:RDF>
      <cc:Work rdf:about="">
        <dc:format>image/svg+xml</dc:format>
        <dc:type rdf:resource="http://purl.org/dc/dcmitype/StillImage"/>
        <dc:title/>
      </cc:Work>
    </rdf:RDF>
  </metadata>
  <g inkscape:label="Layer 1" inkscape:groupmode="layer" id="layer1" transform="translate(-273.44842,-342.11256)">
    <g id="g3943" transform="translate(-38.301584,-55.912602)" inkscape:export-filename="C:\Users\mr mahes\Desktop\Barn Swallow.png" inkscape:export-xdpi="775.96661" inkscape:export-ydpi="775.96661">
      <path sodipodi:nodetypes="cssscscccccccccccccc" inkscape:connector-curvature="0" id="path3866" d="m 319.91673,460.65778 c 0,0 0.17156,19.98394 2.49805,28.81083 3.56936,13.54244 9.73091,26.65698 17.98595,37.97034 8.42654,11.54839 19.86853,20.73778 31.30887,29.31043 9.08162,6.80518 29.31044,17.3198 29.31044,17.3198 0,0 25.92429,17.86067 37.30419,28.64429 14.85988,14.08126 39.96877,46.63024 39.96877,46.63024 l 39.30263,45.96409 3.33073,2.66458 -0.66615,-2.66458 -55.95628,-69.94536 4.66302,0 14.65522,10.65834 9.32605,2.66459 46.63023,55.95628 3.99688,0 -2.66458,-1.99844 L 481.62373,616.0364 375.70648,433.51233 z" style="fill:url(#linearGradient3968);fill-opacity:1;stroke:#000000;stroke-width:0;stroke-linecap:butt;stroke-linejoin:miter;stroke-miterlimit:4;stroke-opacity:1;stroke-dasharray:none"/>
      <path sodipodi:nodetypes="csscsscc" inkscape:connector-curvature="0" id="path3870-0" d="m 398.47845,541.44171 c 0,0 1.76015,3.51158 2.11966,5.41692 0.16012,0.84859 0.48757,1.87794 0,2.5907 -0.85605,1.25142 -4.23933,1.64863 -4.23933,1.64863 0,0 3.76257,0.49223 5.41692,-0.23552 1.01626,-0.44705 2.00238,-1.30248 2.35519,-2.35518 1.08312,-3.2318 -1.41311,-10.12729 -1.41311,-10.12729 z" style="fill:#000000;stroke:#000000;stroke-width:0;stroke-linecap:butt;stroke-linejoin:miter;stroke-miterlimit:4;stroke-opacity:1;stroke-dasharray:none"/>
      <path sodipodi:nodetypes="csscsscc" inkscape:connector-curvature="0" id="path3870" d="m 367.17297,582.03222 c 0,0 1.76015,3.51158 2.11966,5.41692 0.16012,0.84859 0.48757,1.87794 0,2.5907 -0.85605,1.25142 -4.23933,1.64863 -4.23933,1.64863 0,0 3.76257,0.49223 5.41692,-0.23552 1.01626,-0.44705 2.00238,-1.30248 2.35519,-2.35518 1.08312,-3.2318 -1.41311,-10.12729 -1.41311,-10.12729 z" style="fill:#000000;stroke:#000000;stroke-width:0;stroke-linecap:butt;stroke-linejoin:miter;stroke-miterlimit:4;stroke-opacity:1;stroke-dasharray:none"/>
      <path inkscape:connector-curvature="0" id="path3933" d="m 318.65621,585.80051 20.25457,-9.89177 20.25457,-8.47866 4.94588,-3.06174 16.48628,-25.43597 2.5907,-4.47485 12.24695,-16.95731 15.07317,9.65625 -11.06936,18.37042 -19.07698,25.43597 -1.64862,3.29726 -14.36662,13.42454 -9.42073,4.94589 -9.89177,9.42073 -4.00381,0.23551 -3.53277,-1.88414 -12.9535,7.30106 -4.47485,-8.47865 2.35518,-4.00381 z" style="fill:#69421b;fill-opacity:1;stroke:#000000;stroke-width:0;stroke-linecap:butt;stroke-linejoin:miter;stroke-miterlimit:4;stroke-opacity:1;stroke-dasharray:none"/>
      <path inkscape:connector-curvature="0" id="path3864" d="m 438.535,600.63816 27.79116,32.50152 -11.30488,-18.37043 8.9497,8.47866 -3.7683,-8.94969 10.36281,10.3628 14.13109,8.00762 -18.37042,-19.3125 34.8567,32.03049 -15.07317,-24.02287 -40.0381,-48.51676 1.41311,7.53659 18.84146,25.43597 -9.89177,-10.36281 0,5.18141 6.12348,8.47865 -4.23933,0.94208 -15.54421,-9.89177 z" style="fill:#f2f2f2;stroke:#000000;stroke-width:0;stroke-linecap:butt;stroke-linejoin:miter;stroke-miterlimit:4;stroke-opacity:1;stroke-dasharray:none"/>
      <path sodipodi:nodetypes="cccccssccsccccc" inkscape:connector-curvature="0" id="path3804" d="m 332.40697,402.8696 c 0,0 7.26347,-3.98644 13.656,-4.32995 17.24021,-2.79784 27.93545,7.49353 35.9719,20.9836 3.3225,5.72443 7.66068,18.31903 7.66068,18.31903 21.02865,18.04467 32.29428,44.90512 39.96878,68.27999 0,0 3.90088,12.332 6.32838,18.31902 8.65954,21.35726 18.32273,42.35964 29.31044,62.61774 9.22438,17.00704 30.64273,49.29483 30.64273,49.29483 0,0 -26.0839,-26.75705 -37.30419,-41.63414 -27.92546,-41.46101 -51.73313,-78.84878 -75.6076,-124.23628 -4.20237,-7.98908 -6.83204,-17.22196 -10.65834,-24.31434 -1.72045,-3.13409 -4.32995,-9.99219 -4.32995,-9.99219 l -12.32371,-4.9961 -22.3159,-8.99297 c -1.04386,-6.23488 1.38026,-13.36959 -0.99922,-19.31824 z" style="fill:url(#linearGradient3970);fill-opacity:1;stroke:#000000;stroke-width:0;stroke-linecap:butt;stroke-linejoin:miter;stroke-miterlimit:4;stroke-opacity:1;stroke-dasharray:none"/>
      <path sodipodi:nodetypes="cssccccscccc" inkscape:connector-curvature="0" id="path3794" d="m 325.48624,441.19229 c 0,0 -4.98038,10.56118 -5.88796,16.25076 -0.39593,2.48204 -0.70983,5.20773 0.23552,7.53659 0.91964,2.26552 2.94573,4.01061 4.94588,5.41692 4.29438,2.58229 7.26417,4.52644 11.06936,1.41311 l 0,-1.64863 c 10.31172,2.14279 23.19953,-4.34847 30.85289,-11.06936 1.05475,-1.35179 3.58596,-2.34091 4.00381,-4.00381 0.45032,-1.7921 0.33098,-3.77447 1.1776,-5.41692 4.8109,-5.85688 1.65615,-10.34569 -0.94208,-16.25076 -12.37185,-4.12896 -11.49044,0.26202 -16.01524,1.17759 z" style="fill:url(#linearGradient3972);fill-opacity:1;stroke:#000000;stroke-width:0;stroke-linecap:butt;stroke-linejoin:miter;stroke-miterlimit:4;stroke-opacity:1;stroke-dasharray:none"/>
      <path sodipodi:nodetypes="cccc" inkscape:connector-curvature="0" id="path3784" d="m 325.95727,444.72507 c 0,0 -5.05597,10.68436 -3.76829,16.01524 17.02234,36.39243 52.98294,-33.56326 31.08841,-14.1311 z" style="fill:url(#linearGradient3974);fill-opacity:1;stroke:#000000;stroke-width:0;stroke-linecap:butt;stroke-linejoin:miter;stroke-miterlimit:4;stroke-opacity:1;stroke-dasharray:none"/>
      <path sodipodi:nodetypes="cccscscccc" inkscape:connector-curvature="0" id="path3774" d="m 323.83761,416.81615 22.96303,-5.65244 3.41502,0 c 0,0 7.40354,0.69056 10.83384,2.00191 1.76069,0.67309 4.82812,2.94398 4.82812,2.94398 0,0 -4.40337,5.12794 -7.41882,6.35899 -1.09266,0.44608 -3.53278,0.23552 -3.53278,0.23552 l -2.5907,3.53277 -25.67149,-7.88986 z" style="fill:url(#linearGradient3976);fill-opacity:1;stroke:#000000;stroke-width:0;stroke-linecap:butt;stroke-linejoin:miter;stroke-miterlimit:4;stroke-opacity:1;stroke-dasharray:none"/>
      <path sodipodi:nodetypes="cccccccccccsccscc" inkscape:connector-curvature="0" id="path3772" d="m 322.54226,414.57873 c 0,0 0.41195,-3.41528 1.29535,-4.82813 3.09269,-3.81624 6.56158,-6.04944 10.71608,-8.36089 0.33717,7.55413 8.94596,7.38199 13.42454,8.00762 -0.55315,2.33375 -2.78369,3.82881 -6.47675,4.5926 -5.57393,0.19627 -25.48237,6.29498 -16.7218,0.5888 l -0.35327,4.12157 13.66006,1.88414 5.77019,2.00191 3.1795,2.47294 c 0,0 3.23073,-0.52533 4.71036,0 10.86537,6.11935 15.19552,13.66306 6.47676,23.08079 -5.34149,5.76971 -16.12931,5.34396 -23.31631,4.47485 -5.21251,-0.93673 -7.40684,-4.36782 -9.53849,-9.06746 0,0 0.98571,-7.53956 0.70655,-11.30487 -0.30568,-4.12294 -2.5907,-12.12919 -2.5907,-12.12919 z" style="fill:#aa4400;fill-opacity:1;stroke:#000000;stroke-width:0;stroke-linecap:butt;stroke-linejoin:miter;stroke-miterlimit:4;stroke-opacity:1;stroke-dasharray:none"/>
      <path sodipodi:nodetypes="cccccccscccc" inkscape:connector-curvature="0" id="path3764" d="m 311.82618,419.52461 c 2.94675,-4.17351 10.16771,-4.84481 11.77591,-5.1814 l 2.5907,0.70656 -0.94207,1.88414 c 0,0 6.80989,1.89733 10.89272,2.53182 4.97638,0.0454 8.0748,2.38835 11.48151,5.94684 l -0.94207,0.23552 c 0,0 -3.86749,-2.95918 -6.12347,-3.76829 -2.16331,-0.77587 -6.83003,-0.94208 -6.83003,-0.94208 l -7.30107,1.17759 -2.35518,-0.23551 c -4.72029,-2.69898 -8.16488,-1.57088 -12.24695,-2.35519 z" style="fill:#000000;stroke:#000000;stroke-width:0;stroke-linecap:butt;stroke-linejoin:miter;stroke-miterlimit:4;stroke-opacity:1;stroke-dasharray:none"/>
      <path sodipodi:nodetypes="sssss" inkscape:connector-curvature="0" id="path3766" d="m 352.22482,416.19252 c -0.0372,-2.23746 2.59256,-4.72121 4.82957,-4.66302 2.27726,0.0592 4.70228,2.71841 4.66302,4.9961 -0.0352,2.04085 -2.28945,4.27811 -4.32995,4.32995 -2.31818,0.0589 -5.12408,-2.34443 -5.16264,-4.66303 z" style="fill:#1a1a1a;stroke:#000000;stroke-width:0;stroke-linecap:butt;stroke-linejoin:miter;stroke-miterlimit:4;stroke-opacity:1;stroke-dasharray:none"/>
      <path transform="matrix(1.0263158,0,0,0.92307692,-4.855853,37.946072)" d="m 355.38902,409.94739 c 0,1.79352 -1.41666,3.24746 -3.1642,3.24746 -1.74753,0 -3.16419,-1.45394 -3.16419,-3.24746 0,-1.79353 1.41666,-3.24747 3.16419,-3.24747 1.74754,0 3.1642,1.45394 3.1642,3.24747 z" sodipodi:ry="3.247463" sodipodi:rx="3.1641946" sodipodi:cy="409.94739" sodipodi:cx="352.22482" id="path3768" style="fill:#000000;fill-opacity:1;fill-rule:evenodd;stroke:#c38c67;stroke-width:0;stroke-miterlimit:4;stroke-opacity:1;stroke-dasharray:none;stroke-dashoffset:0" sodipodi:type="arc"/>
      <path transform="translate(100.42155,13.322925)" d="m 256.79938,401.62057 c 0,0.68982 -0.55921,1.24903 -1.24903,1.24903 -0.68981,0 -1.24902,-0.55921 -1.24902,-1.24903 0,-0.68981 0.55921,-1.24902 1.24902,-1.24902 0.68982,0 1.24903,0.55921 1.24903,1.24902 z" sodipodi:ry="1.2490242" sodipodi:rx="1.2490242" sodipodi:cy="401.62057" sodipodi:cx="255.55035" id="path3770" style="fill:#ffffff;fill-opacity:1;fill-rule:evenodd;stroke:#c38c67;stroke-width:0;stroke-miterlimit:4;stroke-opacity:1;stroke-dasharray:none;stroke-dashoffset:0" sodipodi:type="arc"/>
      <path inkscape:connector-curvature="0" id="path3814" d="m 415.2187,522.68161 50.87194,81.01828" style="fill:none;stroke:#514b45;stroke-width:1px;stroke-linecap:butt;stroke-linejoin:miter;stroke-opacity:1;filter:url(#filter3856)"/>
      <path inkscape:connector-curvature="0" id="path3816" d="m 420.63562,524.80128 46.86813,77.4855" style="fill:none;stroke:#514b45;stroke-width:1px;stroke-linecap:butt;stroke-linejoin:miter;stroke-opacity:1;filter:url(#filter3852)"/>
      <path inkscape:connector-curvature="0" id="path3818" d="m 423.93287,524.09472 41.68673,71.36203" style="fill:none;stroke:#514b45;stroke-width:1px;stroke-linecap:butt;stroke-linejoin:miter;stroke-opacity:1;filter:url(#filter3848)"/>
      <path inkscape:connector-curvature="0" id="path3820" d="m 429.34979,525.03679 24.72942,47.10366" style="fill:none;stroke:#514b45;stroke-width:1px;stroke-linecap:butt;stroke-linejoin:miter;stroke-opacity:1;filter:url(#filter3844)"/>
      <path inkscape:connector-curvature="0" id="path3822" d="m 432.64705,522.68161 29.6753,62.17682" style="fill:none;stroke:#514b45;stroke-width:1px;stroke-linecap:butt;stroke-linejoin:miter;stroke-opacity:1;filter:url(#filter3860)"/>
      <path sodipodi:nodetypes="sscsscs" inkscape:connector-curvature="0" id="path3868" d="m 348.33151,573.78907 c -0.0822,1.22355 -2.25629,1.26937 -2.82622,2.35519 -0.80601,1.53558 -0.47104,5.1814 -0.47104,5.1814 0,0 -3.37747,-4.10562 -3.53277,-6.59451 -0.0681,-1.09134 0.35207,-2.34467 1.17759,-3.06174 0.79074,-0.68686 3.06174,-0.70656 3.06174,-0.70656 0,0 2.67633,1.55111 2.5907,2.82622 z" style="fill:#000000;stroke:#000000;stroke-width:0;stroke-linecap:butt;stroke-linejoin:miter;stroke-miterlimit:4;stroke-opacity:1;stroke-dasharray:none"/>
      <path sodipodi:nodetypes="sscsscs" inkscape:connector-curvature="0" id="path3868-7" d="m 359.28568,568.37215 c -0.0822,1.22355 -2.25629,1.26937 -2.82622,2.35519 -0.80601,1.53558 -0.47104,5.1814 -0.47104,5.1814 0,0 -3.37747,-4.10562 -3.53277,-6.59451 -0.0681,-1.09134 0.35207,-2.34467 1.17759,-3.06174 0.79074,-0.68686 3.06174,-0.70656 3.06174,-0.70656 0,0 2.67633,1.55111 2.5907,2.82622 z" style="fill:#000000;stroke:#000000;stroke-width:0;stroke-linecap:butt;stroke-linejoin:miter;stroke-miterlimit:4;stroke-opacity:1;stroke-dasharray:none"/>
      <path sodipodi:nodetypes="sscsscs" inkscape:connector-curvature="0" id="path3868-7-5" d="m 383.77958,539.40341 c -0.0822,1.22355 -2.25629,1.26937 -2.82622,2.35519 -0.80601,1.53558 -0.47104,5.1814 -0.47104,5.1814 0,0 -3.37747,-4.10562 -3.53277,-6.59451 -0.0681,-1.09134 0.35207,-2.34467 1.17759,-3.06174 0.79074,-0.68686 3.06174,-0.70656 3.06174,-0.70656 0,0 2.67633,1.55111 2.5907,2.82622 z" style="fill:#000000;stroke:#000000;stroke-width:0;stroke-linecap:butt;stroke-linejoin:miter;stroke-miterlimit:4;stroke-opacity:1;stroke-dasharray:none"/>
      <path sodipodi:nodetypes="sscsscs" inkscape:connector-curvature="0" id="path3868-7-9" d="m 388.48994,531.39578 c -0.0822,1.22355 -2.25629,1.26937 -2.82622,2.35519 -0.80601,1.53558 -0.47104,5.1814 -0.47104,5.1814 0,0 -3.37747,-4.10562 -3.53277,-6.59451 -0.0681,-1.09134 0.35207,-2.34467 1.17759,-3.06174 0.79074,-0.68686 3.06174,-0.70656 3.06174,-0.70656 0,0 2.67633,1.55111 2.5907,2.82622 z" style="fill:#000000;stroke:#000000;stroke-width:0;stroke-linecap:butt;stroke-linejoin:miter;stroke-miterlimit:4;stroke-opacity:1;stroke-dasharray:none"/>
    </g>
  </g>
</svg>